<svg width="256" height="256" viewBox="0 0 256 256" fill="none" xmlns="http://www.w3.org/2000/svg">
  <defs>
    <linearGradient id="bg" x1="40" y1="28" x2="218" y2="228" gradientUnits="userSpaceOnUse">
      <stop stop-color="#1E5AA8"/>
      <stop offset="1" stop-color="#123A63"/>
    </linearGradient>
    <linearGradient id="accent" x1="86" y1="128" x2="170" y2="128" gradientUnits="userSpaceOnUse">
      <stop stop-color="#FFD166"/>
      <stop offset="1" stop-color="#F4A261"/>
    </linearGradient>
    <filter id="shadow" x="0" y="0" width="256" height="256" filterUnits="userSpaceOnUse" color-interpolation-filters="sRGB">
      <feDropShadow dx="0" dy="10" stdDeviation="12" flood-color="#0A223A" flood-opacity="0.22"/>
    </filter>
  </defs>

  <rect x="20" y="20" width="216" height="216" rx="52" fill="url(#bg)"/>
  <rect x="20" y="20" width="216" height="216" rx="52" fill="white" fill-opacity="0.04"/>

  <g filter="url(#shadow)" stroke="#F8FBFF" stroke-width="8" stroke-linecap="round" stroke-linejoin="round">
    <g transform="translate(32 58) scale(3.45)">
      <path vector-effect="non-scaling-stroke" d="M6 22a2 2 0 0 1-2-2V4a2 2 0 0 1 2-2h8a2.4 2.4 0 0 1 1.704.706l3.588 3.588A2.4 2.4 0 0 1 20 8v12a2 2 0 0 1-2 2z" />
      <path vector-effect="non-scaling-stroke" d="M14 2v5a1 1 0 0 0 1 1h5" />
      <path vector-effect="non-scaling-stroke" d="M10 9H8" />
      <path vector-effect="non-scaling-stroke" d="M16 13H8" />
      <path vector-effect="non-scaling-stroke" d="M16 17H8" />
    </g>
    <g transform="translate(141.2 58) scale(3.45)">
      <path vector-effect="non-scaling-stroke" d="M6 22a2 2 0 0 1-2-2V4a2 2 0 0 1 2-2h8a2.4 2.4 0 0 1 1.704.706l3.588 3.588A2.4 2.4 0 0 1 20 8v12a2 2 0 0 1-2 2z" />
      <path vector-effect="non-scaling-stroke" d="M14 2v5a1 1 0 0 0 1 1h5" />
      <path vector-effect="non-scaling-stroke" d="M10 9H8" />
      <path vector-effect="non-scaling-stroke" d="M16 13H8" />
      <path vector-effect="non-scaling-stroke" d="M16 17H8" />
    </g>
  </g>

  <g stroke="url(#accent)" stroke-width="10" stroke-linecap="round" stroke-linejoin="round">
    <g transform="translate(91 83) scale(3.1)">
      <path vector-effect="non-scaling-stroke" d="M5 12h14" />
      <path vector-effect="non-scaling-stroke" d="m12 5 7 7-7 7" />
    </g>
  </g>
</svg>
